<svg xmlns="http://www.w3.org/2000/svg" viewBox="0 0 48 48" width="48" height="48">
  <defs>
    <linearGradient id="wheatGradient" x1="0%" y1="0%" x2="100%" y2="100%">
      <stop offset="0%" style="stop-color:#d4a574;stop-opacity:1" />
      <stop offset="50%" style="stop-color:#b8860b;stop-opacity:1" />
      <stop offset="100%" style="stop-color:#8b4513;stop-opacity:1" />
    </linearGradient>
  </defs>
  
  <!-- Background circle for better visibility -->
  <circle cx="24" cy="24" r="24" fill="#fef7ed" stroke="#d4a574" stroke-width="1"/>
  
  <!-- Wheat stem -->
  <path d="M24 42 L24 18" stroke="url(#wheatGradient)" stroke-width="2.5" fill="none"/>
  
  <!-- Wheat grains -->
  <ellipse cx="21" cy="19" rx="2.5" ry="5" fill="url(#wheatGradient)" transform="rotate(-15 21 19)"/>
  <ellipse cx="27" cy="19" rx="2.5" ry="5" fill="url(#wheatGradient)" transform="rotate(15 27 19)"/>
  
  <ellipse cx="20" cy="23" rx="2.5" ry="5" fill="url(#wheatGradient)" transform="rotate(-20 20 23)"/>
  <ellipse cx="28" cy="23" rx="2.5" ry="5" fill="url(#wheatGradient)" transform="rotate(20 28 23)"/>
  
  <ellipse cx="19" cy="27" rx="2.5" ry="5" fill="url(#wheatGradient)" transform="rotate(-25 19 27)"/>
  <ellipse cx="29" cy="27" rx="2.5" ry="5" fill="url(#wheatGradient)" transform="rotate(25 29 27)"/>
  
  <ellipse cx="18" cy="31" rx="2.5" ry="5" fill="url(#wheatGradient)" transform="rotate(-30 18 31)"/>
  <ellipse cx="30" cy="31" rx="2.5" ry="5" fill="url(#wheatGradient)" transform="rotate(30 30 31)"/>
  
  <ellipse cx="17" cy="35" rx="2.5" ry="5" fill="url(#wheatGradient)" transform="rotate(-35 17 35)"/>
  <ellipse cx="31" cy="35" rx="2.5" ry="5" fill="url(#wheatGradient)" transform="rotate(35 31 35)"/>
  
  <!-- Wheat awns -->
  <path d="M17 14 L15 8" stroke="url(#wheatGradient)" stroke-width="1" fill="none"/>
  <path d="M21 16 L19 10" stroke="url(#wheatGradient)" stroke-width="1" fill="none"/>
  <path d="M24 16 L24 10" stroke="url(#wheatGradient)" stroke-width="1" fill="none"/>
  <path d="M27 16 L29 10" stroke="url(#wheatGradient)" stroke-width="1" fill="none"/>
  <path d="M31 14 L33 8" stroke="url(#wheatGradient)" stroke-width="1" fill="none"/>
</svg>
