<svg xmlns="http://www.w3.org/2000/svg" viewBox="0 0 16 16" width="16" height="16">
  <defs>
    <linearGradient id="wheatGradient" x1="0%" y1="0%" x2="100%" y2="100%">
      <stop offset="0%" style="stop-color:#d4a574;stop-opacity:1" />
      <stop offset="50%" style="stop-color:#b8860b;stop-opacity:1" />
      <stop offset="100%" style="stop-color:#8b4513;stop-opacity:1" />
    </linearGradient>
  </defs>
  
  <!-- Background circle for better visibility -->
  <circle cx="8" cy="8" r="8" fill="#fef7ed"/>
  
  <!-- Wheat stem -->
  <path d="M8 14 L8 6" stroke="url(#wheatGradient)" stroke-width="1" fill="none"/>
  
  <!-- Wheat grains - simplified for 16px -->
  <ellipse cx="7.5" cy="6.5" rx="1" ry="2" fill="url(#wheatGradient)" transform="rotate(-15 7.5 6.5)"/>
  <ellipse cx="8.5" cy="6.5" rx="1" ry="2" fill="url(#wheatGradient)" transform="rotate(15 8.5 6.5)"/>
  
  <ellipse cx="7" cy="8" rx="1" ry="2" fill="url(#wheatGradient)" transform="rotate(-20 7 8)"/>
  <ellipse cx="9" cy="8" rx="1" ry="2" fill="url(#wheatGradient)" transform="rotate(20 9 8)"/>
  
  <ellipse cx="6.5" cy="9.5" rx="1" ry="2" fill="url(#wheatGradient)" transform="rotate(-25 6.5 9.5)"/>
  <ellipse cx="9.5" cy="9.5" rx="1" ry="2" fill="url(#wheatGradient)" transform="rotate(25 9.5 9.5)"/>
  
  <ellipse cx="6" cy="11" rx="1" ry="2" fill="url(#wheatGradient)" transform="rotate(-30 6 11)"/>
  <ellipse cx="10" cy="11" rx="1" ry="2" fill="url(#wheatGradient)" transform="rotate(30 10 11)"/>
  
  <!-- Wheat awns -->
  <path d="M6.5 4.5 L6 2.5" stroke="url(#wheatGradient)" stroke-width="0.5" fill="none"/>
  <path d="M7.5 5 L7 3" stroke="url(#wheatGradient)" stroke-width="0.5" fill="none"/>
  <path d="M8 5 L8 3" stroke="url(#wheatGradient)" stroke-width="0.5" fill="none"/>
  <path d="M8.5 5 L9 3" stroke="url(#wheatGradient)" stroke-width="0.5" fill="none"/>
  <path d="M9.5 4.5 L10 2.5" stroke="url(#wheatGradient)" stroke-width="0.5" fill="none"/>
</svg>
